<?xml version="1.0" encoding="UTF-8"?>
<!DOCTYPE svg PUBLIC "-//W3C//DTD SVG 1.1//EN" "http://www.w3.org/Graphics/SVG/1.1/DTD/svg11.dtd">
<!-- Creator: CorelDRAW 2020 (64 Bit) -->
<svg xmlns="http://www.w3.org/2000/svg" xml:space="preserve" width="326px" height="99px" version="1.1" style="shape-rendering:geometricPrecision; text-rendering:geometricPrecision; image-rendering:optimizeQuality; fill-rule:evenodd; clip-rule:evenodd"
viewBox="0 0 326 98.72"
 xmlns:xlink="http://www.w3.org/1999/xlink"
 xmlns:xodm="http://www.corel.com/coreldraw/odm/2003">
 <defs>
  <style type="text/css">
   <![CDATA[
    .fil2 {fill:#00B81F;fill-rule:nonzero}
    .fil1 {fill:white;fill-rule:nonzero}
    .fil0 {fill:white;fill-rule:nonzero}
   ]]>
  </style>
 </defs>
 <g id="Camada_x0020_1">
  <metadata id="CorelCorpID_0Corel-Layer"/>
  <g id="_2121510160176">
   <path class="fil0" d="M118.1 83.24c0,1.31 0.75,2.06 2.06,2.06l12.13 0c5.6,0 9.01,-3.36 9.01,-8.4 0,-3.69 -2.75,-7.19 -6.06,-7.66 3.03,-0.6 5.46,-3.41 5.46,-7.14 0,-4.71 -3.36,-7.93 -8.73,-7.93l-11.81 0c-1.31,0 -2.06,0.74 -2.06,2.05l0 27.02zm3.88 -15.59l0 -10.03 9.33 0c3.36,0 5.37,2.1 5.37,5.04 0,2.94 -1.96,4.99 -5.37,4.99l-9.33 0zm0 14.19l0 -10.73 9.52 0c3.69,0 5.79,2.33 5.79,5.37 0,3.31 -2.2,5.36 -5.79,5.36l-9.52 0zm55.65 1.64c0,-0.05 -0.05,-0.28 -0.14,-0.75l-10.79 -26.6c-0.51,-1.31 -1.67,-2.15 -3.12,-2.15 -1.45,0 -2.66,0.84 -3.17,2.15l-10.74 26.6c-0.14,0.37 -0.19,0.65 -0.19,0.79 0,1.08 0.89,1.96 2.01,1.96 0.89,0 1.59,-0.51 1.82,-1.26l2.24 -5.83 16.01 0 2.24 5.83c0.33,0.75 1.07,1.26 1.87,1.26 1.07,0 1.96,-0.88 1.96,-2zm-20.73 -8.54l6.68 -17.32 6.67 17.32 -13.35 0zm51.5 9.56c0.42,0.61 1.16,0.98 1.96,0.98 1.3,0 2.38,-1.07 2.38,-2.38l0 -27.21c0,-1.07 -0.84,-1.91 -1.96,-1.91 -0.98,0 -1.92,0.84 -1.92,1.91l0 22.87 -17.31 -23.75c-0.52,-0.7 -1.17,-1.03 -2.06,-1.03 -1.35,0 -2.52,1.17 -2.52,2.52l0 27.07c0,1.07 0.84,1.91 1.96,1.91 1.08,0 1.92,-0.93 1.92,-1.91l0 -23.38 17.55 24.31zm38.52 -0.88c0,-0.47 -0.19,-0.89 -0.52,-1.22l-12.41 -13.34 11.29 -12.05c0.33,-0.42 0.52,-0.84 0.52,-1.26 0,-0.98 -0.89,-1.77 -1.87,-1.77 -0.61,0 -1.03,0.19 -1.36,0.61l-14.28 15.73 0 -14.43c0,-1.07 -0.88,-1.91 -1.96,-1.91 -1.07,0 -1.91,0.84 -1.91,1.91l0 27.68c0,1.07 0.84,1.91 1.91,1.91 1.08,0 1.96,-0.84 1.96,-1.91l0 -8.82 3.13 -3.32 12.32 13.49c0.38,0.38 0.84,0.56 1.4,0.56 0.98,0 1.78,-0.79 1.78,-1.86z"/>
   <path class="fil1" d="M90.19 30.43l-21.9 -21.89c-10.71,-10.72 -28.14,-10.72 -38.86,0l-15.32 15.32 -6.57 6.57c-0.68,0.68 -1.34,1.41 -1.93,2.14 -8.74,10.8 -8.1,26.7 1.93,36.73l21.89 21.89c5.35,5.35 12.39,8.03 19.43,8.03 7.04,0 14.07,-2.68 19.43,-8.03l15.33 -15.34 6.57 -6.55c0.69,-0.68 1.34,-1.4 1.93,-2.14 8.73,-10.8 8.09,-26.7 -1.93,-36.73zm-8.6 30.27l0 0 -6.57 6.56 -15.32 15.33c-5.98,5.97 -15.71,5.97 -21.68,0l-21.89 -21.89c-5.28,-5.28 -5.9,-13.49 -1.84,-19.45 0.52,-0.79 1.14,-1.53 1.84,-2.23l6.57 -6.57 15.32 -15.32c2.99,-2.98 6.92,-4.47 10.84,-4.47 3.92,0 7.84,1.49 10.84,4.47l21.89 21.89c5.27,5.27 5.9,13.48 1.84,19.44 -0.52,0.79 -1.14,1.54 -1.84,2.24z"/>
   <g>
    <g>
     <g>
      <path class="fil2" d="M49.02 67.39c-1.18,1.18 -2.75,1.77 -4.3,1.77 -1.55,0 -3.11,-0.59 -4.3,-1.77l-34.81 -34.82c0.59,-0.73 1.25,-1.46 1.93,-2.14l6.57 -6.57 34.91 34.92c2.38,2.39 2.38,6.23 0,8.61z"/>
     </g>
     <g>
      <path class="fil2" d="M92.12 67.16c-0.59,0.74 -1.24,1.46 -1.93,2.14l-6.57 6.55 -8.6 -8.59 -26.33 -26.33c-2.37,-2.37 -2.37,-6.23 0,-8.6 2.37,-2.37 6.23,-2.37 8.61,0l26.13 26.13 8.69 8.7z"/>
     </g>
    </g>
   </g>
   <path class="fil0" d="M118.3 45.12c0,1.11 0.87,1.97 2.02,1.97 1.1,0 1.97,-0.96 1.97,-1.97l0 -10.95 8.88 0c6.19,0 10.03,-4.32 10.03,-9.65 0,-5.32 -3.69,-9.64 -10.03,-9.64l-10.75 0c-1.35,0 -2.12,0.76 -2.12,2.11l0 28.13zm12.39 -26.69c3.79,0 6.39,2.5 6.39,6.09 0,3.61 -2.6,6.1 -6.39,6.1l-8.4 0 0 -12.19 8.4 0zm30.39 -4.08c-9.31,-0.15 -16.04,7.25 -15.89,16.56 -0.15,9.36 6.58,16.71 15.89,16.56 9.26,0.15 15.99,-7.2 15.89,-16.56 0.1,-9.31 -6.63,-16.71 -15.89,-16.56zm0 3.55c7.06,0 11.76,5.52 11.76,13.01 0,7.44 -4.7,13.01 -11.76,13.01 -7.11,0 -11.76,-5.57 -11.76,-13.01 0,-7.49 4.6,-13.01 11.76,-13.01zm22.13 26.88c0,1.35 0.77,2.12 2.11,2.12l15.17 0c0.96,0 1.83,-0.82 1.83,-1.78 0,-0.96 -0.87,-1.78 -1.83,-1.78l-13.3 0 0 -26.69c0,-1.1 -0.86,-1.97 -1.96,-1.97 -1.16,0 -2.02,0.87 -2.02,1.97l0 28.13zm37.45 -30.43c-9.32,-0.15 -16.04,7.25 -15.9,16.56 -0.14,9.36 6.58,16.71 15.9,16.56 9.26,0.15 15.98,-7.2 15.88,-16.56 0.1,-9.31 -6.62,-16.71 -15.88,-16.56zm0 3.55c7.05,0 11.76,5.52 11.76,13.01 0,7.44 -4.71,13.01 -11.76,13.01 -7.11,0 -11.77,-5.57 -11.77,-13.01 0,-7.49 4.61,-13.01 11.77,-13.01zm20.83 13.01c-0.19,9.6 7.35,16.76 16.32,16.56 4.61,0 8.12,-1.63 11,-4.65 0.33,-0.34 0.48,-0.77 0.48,-1.3 0,-1.01 -0.87,-1.87 -1.88,-1.87 -0.62,0 -1.1,0.19 -1.44,0.62 -1.96,2.31 -4.94,3.65 -8.16,3.65 -6.86,0 -12.19,-5.52 -12.19,-13.01 0,-7.58 5.33,-13.01 12.19,-13.01 3.22,0 6.1,1.34 8.16,3.65 0.34,0.43 0.82,0.62 1.44,0.62 1.01,0 1.88,-0.86 1.88,-1.87 0,-0.53 -0.15,-0.96 -0.48,-1.3 -2.88,-3.12 -6.53,-4.65 -11,-4.65 -8.97,-0.15 -16.51,6.96 -16.32,16.56zm59.82 14.11c0,-0.04 -0.05,-0.28 -0.15,-0.76l-11.09 -27.37c-0.52,-1.34 -1.73,-2.21 -3.21,-2.21 -1.49,0 -2.74,0.87 -3.27,2.21l-11.04 27.37c-0.14,0.38 -0.19,0.67 -0.19,0.81 0,1.11 0.91,2.02 2.06,2.02 0.91,0 1.63,-0.53 1.88,-1.3l2.3 -6 16.47 0 2.3 6c0.34,0.77 1.1,1.3 1.92,1.3 1.1,0 2.02,-0.91 2.02,-2.07zm-21.32 -8.78l6.87 -17.81 6.86 17.81 -13.73 0zm26.41 8.54c0,1.35 0.76,2.12 2.11,2.12l15.17 0c0.96,0 1.82,-0.82 1.82,-1.78 0,-0.96 -0.86,-1.78 -1.82,-1.78l-13.3 0 0 -26.69c0,-1.1 -0.86,-1.97 -1.97,-1.97 -1.15,0 -2.01,0.87 -2.01,1.97l0 28.13z"/>
  </g>
 </g>
</svg>
